<svg xmlns="http://www.w3.org/2000/svg" width="512" height="512" xml:space="preserve" version="1.1" fill="#000000" style=""><rect id="backgroundrect" width="100%" height="100%" x="0" y="0" fill="none" stroke="none"/>

 <g style="" class="currentLayer">
  <title>Layer 1</title>
  <g id="svg_1" class="selected">
   <path fill="#c1215f" id="svg_2" d="m185.44404399732355,279.97267710844085 c12.425644550671223,1.648057118671991 44.19929830419819,-66.76216000927978 46.48367863941908,-68.28344350343855 c2.2843803352208933,-1.5212834941587625 48.04121068616059,1.7906774462493744 42.0014475271296,-20.521480468079115 c-13.758199746216746,10.664831162175481 -20.213304784378813,-0.8874153715926109 -19.5902919656822,-9.286167995594104 c0.6230128186966076,-8.414599327065647 12.26989134599707,-26.273833680366934 15.333037704588723,-25.069484247491246 c3.0631463585916525,1.2201961359398394 8.341449405882353,11.1719256602284 19.34800920285575,1.949144476890913 c-16.665592900134243,1.457896681902148 -12.737150960019525,-20.870107935490502 -7.562683382511594,-23.548200753332484 c5.191773489138393,-2.6622461147778322 25.318548715364898,-10.807451489752866 31.15064093483036,-15.98932339173114 s6.282045921857456,-21.519822761120803 18.171207211984377,-17.922621165557903 c11.889161290126921,3.5972015955629035 3.1150640934830367,26.765081475355696 6.662775977727605,34.561659382919345 s35.70209569364168,32.67590171828505 35.16561243309738,40.52001973504115 c-0.5364832605443006,7.8599647198202645 -14.052400243934583,6.44960814711058 -13.758199746216746,17.41552666750498 c0,4.437076857963052 8.42797896403466,7.749037798371188 8.652955815230655,12.930909700349467 c0.2422827628264585,5.18187190197828 -9.102909517622649,9.080160855760104 -9.102909517622649,9.080160855760104 s8.012637084903586,2.0125312891475273 6.45510503816207,9.793262493647024 c-1.5921438700024408,7.7648845014353425 -11.854549466866,5.4195724479405865 -15.142672676653648,7.035936160484269 c-1.5402261351110567,0.7764884501435351 15.765685495350255,18.160321711520208 2.8727813306565784,31.265545145575363 c-11.629572615670003,12.534742123745623 -69.82935342891139,-0.6655615286944586 -81.02627825381985,3.311960940408136 c-21.061294454271415,7.495490549344728 -38.50565337777642,33.49993027762104 -26.893386673736877,45.81281855846851 c11.594960792409081,12.297041577783316 51.65814621692701,51.99303275348848 62.058999106834264,84.97002182999245 c17.84239489100561,43.22980595901146 -25.889643799170116,118.69180595051165 -50.34289693301195,63.95729356692456 c-34.61182326092262,21.32966232435096 37.76149917766657,99.65991557046297 139.27797680195263,-18.223708523776818 c77.79007277892359,-95.85670683506608 39.75167901516963,-270.3764476805914 16.76942836991701,-309.58119106130783 c-22.9476388219917,-39.18889667765224 -129.93278452150352,-174.58312765778192 -244.74020227798383,-114.65089666915244 c-142.80838277456672,71.43693741320514 -74.88267962500609,244.27692773393017 17.755865332853304,260.4722582654953 z"/>
  </g>
 </g>
</svg>