<svg width="512" height="512" xmlns="http://www.w3.org/2000/svg" xml:space="preserve" version="1.1">

 <g>
  <title>Layer 1</title>
  <g id="svg_1">
   <path id="svg_2" fill="#0a77c9" d="m322.955,321.129c-5.486,-10.041 -6.367,-20.364 -5.445,-29.227c15.434,-13.062 27.082,-32.489 36.516,-58.126c13.746,-7.182 23.277,-22.605 23.277,-40.526c0,-11.001 -3.594,-21.063 -9.541,-28.866l0.549,-4.853c5.418,-20.518 20.332,-92.317 -25.529,-125.949c-23.918,-29.9 -56.211,-34.683 -92.092,-31.095c-17.85,1.784 -35.006,7.099 -48.707,5.109c-15.711,-2.284 -28.789,-5.585 -32.621,-7.502c-2.209,-1.108 -8.508,7.666 -15.188,22.296c-13.248,29.017 -21.082,78.965 -12.84,124.028l2.035,17.958c-5.95,7.803 -9.547,17.869 -9.547,28.873c0,17.488 9.076,32.602 22.287,39.998c9.272,26.872 21.764,46.885 38.537,60.034c0.684,8.543 -0.396,18.33 -5.602,27.846c-10.257,18.783 -119.71,43.999 -119.71,147.199c0,15.915 53.332,43.674 186.666,43.674c133.336,0 186.666,-27.759 186.666,-43.674c0,-103.2 -109.451,-128.416 -119.711,-147.197z" class="st0"/>
  </g>
 </g>
</svg>